<svg width="162" height="55" viewBox="0 0 162 55" fill="none" xmlns="http://www.w3.org/2000/svg">
<path d="M34.1276 51.1552L11.2535 17.4207V55H0V0.160889H11.2535L34.1276 33.9658V51.1552Z" fill="white"/>
<path d="M47.8929 9.06406V22.7934H66.7827V31.5018H47.8929V46.0157H69.1942V54.9595H36.6394V0.120268L58.5827 0.085083L66.1472 9.06406H47.8929Z" fill="white"/>
<path d="M109.214 54.7607L93.1756 36.3242L78.5388 54.9884L61.8411 54.9595L85.2092 27.1451L61.5224 0H78.6235L94.6624 18.3583L109.108 0H122.126C120.319 0.579291 118.565 1.31777 116.867 2.21844C112.001 4.80033 108.238 8.36335 105.514 12.7386C102.62 17.3844 101.348 22.4637 101.348 27.7413C101.348 33.0401 102.606 38.1519 105.514 42.82C108.238 47.1952 112.001 50.7582 116.867 53.3401C117.865 53.8695 118.883 54.3426 119.919 54.7607H109.214Z" fill="white"/>
<path d="M132.637 54.9537C127.385 54.9537 122.562 53.7881 118.168 51.4572C113.774 49.1262 110.291 45.8957 107.718 41.7656C105.146 37.6355 103.86 32.9607 103.86 27.7413C103.86 22.5724 105.146 17.9231 107.718 13.793C110.291 9.66288 113.774 6.43237 118.168 4.10144C122.562 1.77045 127.385 0.604858 132.637 0.604858C137.942 0.604858 142.778 1.77045 147.146 4.10144C151.513 6.43237 154.97 9.66288 157.515 13.793C160.061 17.9231 161.333 22.5724 161.333 27.7413C161.333 32.9607 160.061 37.6355 157.515 41.7656C154.97 45.8957 151.5 49.1262 147.106 51.4572C142.712 53.7881 137.889 54.9537 132.637 54.9537ZM132.637 45.4522C136.013 45.4522 138.987 44.7301 141.559 43.2859C144.132 41.8416 146.141 39.7767 147.588 37.0908C149.035 34.405 149.758 31.2884 149.758 27.7413C149.758 24.1942 149.035 21.0902 147.588 18.4297C146.141 15.7693 144.132 13.7296 141.559 12.3108C138.987 10.8919 136.013 10.1824 132.637 10.1824C129.261 10.1824 126.273 10.8919 123.674 12.3108C121.075 13.7296 119.052 15.7693 117.605 18.4297C116.159 21.0902 115.435 24.1942 115.435 27.7413C115.435 31.2884 116.159 34.405 117.605 37.0908C119.052 39.7767 121.075 41.8416 123.674 43.2859C126.273 44.7301 129.261 45.4522 132.637 45.4522Z" fill="white"/>
</svg>
