<svg width="577" height="203" viewBox="0 0 577 203" fill="none" xmlns="http://www.w3.org/2000/svg">
<path fill-rule="evenodd" clip-rule="evenodd" d="M197.51 179.481L198.429 179.412C206.379 178.673 210.332 166.679 216.858 153.164C225.345 135.589 239.898 124.676 253.144 113.143C201.843 120.096 150.657 127.96 99.2416 134.003C88.834 135.227 80.9026 136.564 83.4549 146.578C86.0413 153.98 88.6282 161.382 91.2146 168.784C94.5645 175.598 99.3126 179.615 105.455 180.844L106.993 180.876C106.47 182.465 106.186 184.161 106.186 185.923C106.186 194.887 113.511 202.154 122.547 202.154C131.582 202.154 138.908 194.887 138.908 185.923C138.908 184.398 138.696 182.921 138.299 181.522L166.508 181.758C166.193 183.015 166.025 184.328 166.025 185.681C166.025 194.646 173.351 201.912 182.387 201.912C191.422 201.912 198.747 194.646 198.747 185.681C198.747 183.477 198.303 181.373 197.5 179.456L197.51 179.481ZM122.547 169.692C122.676 169.692 122.807 169.694 122.936 169.697C122.806 169.694 122.676 169.692 122.547 169.692ZM124.251 169.78C124.376 169.792 124.499 169.806 124.622 169.822L124.251 169.78ZM122.547 179.948C125.873 179.948 128.569 182.623 128.569 185.923C128.569 189.223 125.873 191.898 122.547 191.898C119.22 191.898 116.523 189.223 116.523 185.923C116.523 182.623 119.22 179.948 122.547 179.948ZM181.986 169.455C182.119 169.452 182.253 169.45 182.387 169.45C182.513 169.45 182.639 169.452 182.764 169.455L182.873 169.458L183.17 169.469L183.268 169.474C183.394 169.48 183.52 169.488 183.645 169.497L183.654 169.498C183.777 169.507 183.9 169.519 184.023 169.531C183.901 169.519 183.777 169.507 183.654 169.498L181.986 169.455ZM182.387 169.45C182.513 169.45 182.639 169.452 182.764 169.455L182.387 169.45ZM182.387 179.706C185.713 179.706 188.409 182.382 188.409 185.681C188.409 188.982 185.713 191.657 182.387 191.657C179.059 191.657 176.363 188.982 176.363 185.681C176.363 182.382 179.059 179.706 182.387 179.706Z" fill="white"/>
<path fill-rule="evenodd" clip-rule="evenodd" d="M57.2481 134.524C106.537 127.633 155.826 120.741 205.116 113.85C220.928 111.108 230.981 104.394 235.434 93.8177C237.292 87.3786 239.149 80.9395 241.006 74.5004C180.632 74.5823 120.257 74.6644 59.8826 74.7463C71.7232 115.474 72.7627 107.165 57.2481 134.524Z" fill="white"/>
<path fill-rule="evenodd" clip-rule="evenodd" d="M2.58686 16.7269C16.8704 17.2214 35.4898 16.1342 38.2651 18.1624C61.5077 27.5319 55.9157 69.0216 78.3799 66.1958C66.6471 45.4402 58.6559 10.6628 33.0625 7.03121C23.0359 6.9652 13.0093 6.8992 2.98267 6.83319C1.29913 7.24689 0.140309 8.64417 0.0142653 11.9779C-0.000807991 14.2878 0.850314 15.8769 2.58686 16.7269Z" fill="white"/>
<path fill-rule="evenodd" clip-rule="evenodd" d="M90.3138 65.8328C105.738 65.8822 121.162 65.9313 136.587 65.9806C142.81 45.2871 132.189 30.256 113.444 30.4335C96.0029 30.599 85.2455 41.9516 90.3138 65.8328Z" fill="white"/>
<path fill-rule="evenodd" clip-rule="evenodd" d="M102.765 30.0083C95.2061 29.4091 92.1452 20.448 91.3905 8.67816C105.998 10.3153 110.475 17.3692 110.411 26.1094C107.484 23.9931 104.41 21.5527 101.177 20.6601C100.981 23.1839 101.947 26.5706 102.765 30.0083Z" fill="white"/>
<path fill-rule="evenodd" clip-rule="evenodd" d="M172.796 66.0342C172.602 49.0302 172.407 32.0259 172.213 15.0217C168.031 12.3565 163.892 9.33355 159.71 6.66842C158.227 4.40191 160.378 2.55691 158.895 0.290405C154.725 0.31847 143.231 0.282591 139.062 0.310656C137.495 2.46516 139.575 4.61968 138.008 6.77419C133.838 9.54431 129.669 12.3147 125.499 15.0848C125.499 18.8343 125.499 22.5841 125.499 26.3334C137.243 30.2084 144.404 39.3698 144.976 56.134C145.737 60.456 147.485 64.2614 152.951 66.1233C159.566 66.0937 166.181 66.0641 172.796 66.0342Z" fill="white"/>
<path fill-rule="evenodd" clip-rule="evenodd" d="M191.866 65.5815C217.08 70.0415 221.449 41.45 225.741 12.7359C199.456 18.7865 173.798 25.2615 178.367 52.2111C184.098 50.5132 189.829 48.8153 195.559 47.1176C194.328 53.2721 193.097 59.4269 191.866 65.5815Z" fill="white"/>
<path d="M348.519 99.2036L309.823 43.3168V105.573H290.785V14.723H309.823L348.519 70.7264V99.2036Z" fill="white"/>
<path d="M371.806 29.4728V52.2179H403.762V66.6446H371.806V90.6895H407.841V105.506H352.768V14.656L389.89 14.5975L402.687 29.4728H371.806Z" fill="white"/>
<path d="M475.544 105.177L448.411 74.6337L423.65 105.554L395.402 105.506L434.934 59.4269L394.863 14.4567H423.793L450.926 44.8703L475.364 14.4567H497.386C494.33 15.4163 491.363 16.6395 488.49 18.1316C480.257 22.4092 473.893 28.3119 469.283 35.5602C464.388 43.2568 462.237 51.6714 462.237 60.4146C462.237 69.193 464.365 77.6616 469.283 85.3948C473.893 92.6431 480.257 98.5458 488.49 102.823C490.179 103.7 491.9 104.484 493.652 105.177H475.544Z" fill="white"/>
<path d="M515.168 105.497C506.283 105.497 498.124 103.566 490.691 99.7038C483.257 95.8422 477.364 90.4904 473.013 83.648C468.662 76.8059 466.486 69.0615 466.486 60.4146C466.486 51.8514 468.662 44.1491 473.013 37.307C477.364 30.4646 483.257 25.1128 490.691 21.2513C498.124 17.3895 506.283 15.4584 515.168 15.4584C524.143 15.4584 532.324 17.3895 539.713 21.2513C547.101 25.1128 552.948 30.4646 557.255 37.307C561.56 44.1491 563.714 51.8514 563.714 60.4146C563.714 69.0615 561.56 76.8059 557.255 83.648C552.948 90.4904 547.078 95.8422 539.645 99.7038C532.211 103.566 524.052 105.497 515.168 105.497ZM515.168 89.7555C520.879 89.7555 525.91 88.5594 530.262 86.1666C534.613 83.7741 538.013 80.3532 540.46 75.9036C542.908 71.454 544.132 66.2909 544.132 60.4146C544.132 54.5381 542.908 49.396 540.46 44.9885C538.013 40.581 534.613 37.2018 530.262 34.8513C525.91 32.5009 520.879 31.3253 515.168 31.3253C509.456 31.3253 504.403 32.5009 500.006 34.8513C495.609 37.2018 492.187 40.581 489.739 44.9885C487.291 49.396 486.067 54.5381 486.067 60.4146C486.067 66.2909 487.291 71.454 489.739 75.9036C492.187 80.3532 495.609 83.7741 500.006 86.1666C504.403 88.5594 509.456 89.7555 515.168 89.7555Z" fill="white"/>
<path d="M282.648 133.782V155.369H278.564V133.782H282.648ZM288.745 137.283C288.026 137.283 287.428 137.054 286.951 136.597C286.475 136.14 286.236 135.572 286.236 134.891C286.236 134.21 286.475 133.641 286.951 133.184C287.428 132.727 288.026 132.499 288.745 132.499C289.465 132.499 290.063 132.727 290.54 133.184C291.016 133.641 291.254 134.21 291.254 134.891C291.254 135.572 291.016 136.14 290.54 136.597C290.063 137.054 289.465 137.283 288.745 137.283ZM290.759 139.208V155.369H286.674V139.208H290.759ZM301.115 138.945C302.321 138.945 303.381 139.184 304.295 139.66C305.209 140.137 305.929 140.754 306.454 141.512V139.208H310.568V155.486C310.568 156.983 310.266 158.32 309.663 159.497C309.06 160.673 308.156 161.607 306.95 162.297C305.744 162.987 304.285 163.333 302.574 163.333C300.279 163.333 298.397 162.798 296.929 161.728C295.461 160.659 294.629 159.2 294.434 157.353H298.489C298.704 158.092 299.165 158.68 299.875 159.118C300.585 159.555 301.446 159.774 302.457 159.774C303.643 159.774 304.606 159.419 305.346 158.709C306.084 157.999 306.454 156.925 306.454 155.486V152.977C305.929 153.735 305.205 154.368 304.281 154.873C303.357 155.379 302.301 155.632 301.115 155.632C299.754 155.632 298.509 155.281 297.381 154.581C296.253 153.881 295.363 152.894 294.712 151.62C294.06 150.347 293.734 148.883 293.734 147.23C293.734 145.596 294.06 144.148 294.712 142.884C295.363 141.619 296.248 140.647 297.366 139.966C298.485 139.286 299.734 138.945 301.115 138.945ZM306.454 147.288C306.454 146.296 306.26 145.446 305.871 144.736C305.482 144.026 304.956 143.482 304.295 143.102C303.634 142.723 302.924 142.534 302.166 142.534C301.407 142.534 300.707 142.718 300.065 143.088C299.423 143.457 298.903 143.997 298.504 144.707C298.105 145.417 297.906 146.258 297.906 147.23C297.906 148.202 298.105 149.053 298.504 149.783C298.903 150.512 299.428 151.071 300.08 151.46C300.731 151.849 301.426 152.043 302.166 152.043C302.924 152.043 303.634 151.854 304.295 151.475C304.956 151.095 305.482 150.551 305.871 149.841C306.26 149.131 306.454 148.28 306.454 147.288ZM313.514 147.23C313.514 145.596 313.84 144.148 314.492 142.884C315.143 141.619 316.028 140.647 317.146 139.966C318.264 139.286 319.514 138.945 320.895 138.945C322.101 138.945 323.156 139.189 324.061 139.675C324.965 140.161 325.689 140.774 326.234 141.512V139.208H330.348V155.369H326.234V153.006C325.709 153.764 324.985 154.392 324.061 154.888C323.137 155.384 322.072 155.632 320.866 155.632C319.505 155.632 318.264 155.281 317.146 154.581C316.028 153.881 315.143 152.894 314.492 151.62C313.84 150.347 313.514 148.883 313.514 147.23ZM326.234 147.288C326.234 146.296 326.04 145.446 325.651 144.736C325.262 144.026 324.736 143.482 324.075 143.102C323.414 142.723 322.704 142.534 321.945 142.534C321.187 142.534 320.487 142.718 319.845 143.088C319.203 143.457 318.683 143.997 318.284 144.707C317.885 145.417 317.686 146.258 317.686 147.23C317.686 148.202 317.885 149.053 318.284 149.783C318.683 150.512 319.208 151.071 319.86 151.46C320.511 151.849 321.206 152.043 321.945 152.043C322.704 152.043 323.414 151.854 324.075 151.475C324.736 151.095 325.262 150.551 325.651 149.841C326.04 149.131 326.234 148.28 326.234 147.288ZM343.301 138.975C345.226 138.975 346.783 139.583 347.969 140.798C349.155 142.014 349.749 143.71 349.749 145.888V155.369H345.664V146.443C345.664 145.159 345.343 144.172 344.701 143.482C344.059 142.791 343.184 142.446 342.075 142.446C340.948 142.446 340.058 142.791 339.406 143.482C338.755 144.172 338.429 145.159 338.429 146.443V155.369H334.345V139.208H338.429V141.221C338.974 140.52 339.668 139.972 340.515 139.573C341.361 139.174 342.29 138.975 343.301 138.975ZM352.579 147.23C352.579 145.596 352.904 144.148 353.556 142.884C354.207 141.619 355.097 140.647 356.225 139.966C357.353 139.286 358.608 138.945 359.989 138.945C361.039 138.945 362.041 139.174 362.994 139.631C363.946 140.088 364.705 140.696 365.269 141.454V133.782H369.412V155.369H365.269V152.977C364.763 153.774 364.053 154.416 363.14 154.902C362.225 155.388 361.165 155.632 359.959 155.632C358.598 155.632 357.353 155.281 356.225 154.581C355.097 153.881 354.207 152.894 353.556 151.62C352.904 150.347 352.579 148.883 352.579 147.23ZM365.299 147.288C365.299 146.296 365.104 145.446 364.715 144.736C364.326 144.026 363.801 143.482 363.14 143.102C362.478 142.723 361.768 142.534 361.01 142.534C360.251 142.534 359.551 142.718 358.909 143.088C358.267 143.457 357.747 143.997 357.348 144.707C356.95 145.417 356.75 146.258 356.75 147.23C356.75 148.202 356.95 149.053 357.348 149.783C357.747 150.512 358.272 151.071 358.924 151.46C359.575 151.849 360.271 152.043 361.01 152.043C361.768 152.043 362.478 151.854 363.14 151.475C363.801 151.095 364.326 150.551 364.715 149.841C365.104 149.131 365.299 148.28 365.299 147.288ZM380.586 155.632C379.03 155.632 377.629 155.286 376.385 154.596C375.14 153.905 374.162 152.928 373.452 151.664C372.743 150.4 372.388 148.942 372.388 147.288C372.388 145.636 372.752 144.177 373.482 142.913C374.211 141.649 375.208 140.672 376.472 139.981C377.736 139.291 379.146 138.945 380.702 138.945C382.258 138.945 383.668 139.291 384.932 139.981C386.197 140.672 387.193 141.649 387.923 142.913C388.652 144.177 389.017 145.636 389.017 147.288C389.017 148.942 388.642 150.4 387.893 151.664C387.145 152.928 386.133 153.905 384.859 154.596C383.585 155.286 382.161 155.632 380.586 155.632ZM380.586 152.072C381.325 152.072 382.02 151.893 382.672 151.533C383.323 151.173 383.843 150.634 384.232 149.914C384.621 149.194 384.816 148.319 384.816 147.288C384.816 145.752 384.412 144.571 383.605 143.744C382.798 142.918 381.811 142.504 380.644 142.504C379.477 142.504 378.499 142.918 377.712 143.744C376.924 144.571 376.53 145.752 376.53 147.288C376.53 148.825 376.914 150.007 377.683 150.833C378.451 151.659 379.419 152.072 380.586 152.072ZM405.704 151.606L409.789 139.208H414.136L408.155 155.369H403.195L397.244 139.208H401.62L405.704 151.606ZM423.618 155.632C422.062 155.632 420.661 155.286 419.417 154.596C418.172 153.905 417.194 152.928 416.484 151.664C415.775 150.4 415.419 148.942 415.419 147.288C415.419 145.636 415.784 144.177 416.513 142.913C417.243 141.649 418.239 140.672 419.504 139.981C420.768 139.291 422.178 138.945 423.734 138.945C425.29 138.945 426.7 139.291 427.964 139.981C429.229 140.672 430.225 141.649 430.955 142.913C431.684 144.177 432.049 145.636 432.049 147.288C432.049 148.942 431.674 150.4 430.925 151.664C430.176 152.928 429.165 153.905 427.891 154.596C426.617 155.286 425.193 155.632 423.618 155.632ZM423.618 152.072C424.356 152.072 425.052 151.893 425.704 151.533C426.355 151.173 426.875 150.634 427.264 149.914C427.653 149.194 427.848 148.319 427.848 147.288C427.848 145.752 427.444 144.571 426.637 143.744C425.83 142.918 424.843 142.504 423.676 142.504C422.509 142.504 421.531 142.918 420.744 143.744C419.956 144.571 419.562 145.752 419.562 147.288C419.562 148.825 419.946 150.007 420.714 150.833C421.483 151.659 422.451 152.072 423.618 152.072ZM434.003 147.288C434.003 145.616 434.344 144.152 435.025 142.898C435.705 141.644 436.649 140.672 437.854 139.981C439.06 139.291 440.441 138.945 441.997 138.945C444 138.945 445.658 139.446 446.971 140.448C448.284 141.449 449.164 142.854 449.611 144.663H445.206C444.973 143.963 444.579 143.414 444.025 143.015C443.47 142.616 442.785 142.417 441.968 142.417C440.801 142.417 439.877 142.84 439.196 143.686C438.516 144.532 438.175 145.733 438.175 147.288C438.175 148.825 438.516 150.016 439.196 150.862C439.877 151.708 440.801 152.131 441.968 152.131C443.621 152.131 444.701 151.392 445.206 149.914H449.611C449.164 151.664 448.279 153.055 446.957 154.085C445.634 155.116 443.981 155.632 441.997 155.632C440.441 155.632 439.06 155.286 437.854 154.596C436.649 153.905 435.705 152.933 435.025 151.679C434.344 150.425 434.003 148.961 434.003 147.288ZM467.641 146.938C467.641 147.522 467.602 148.047 467.524 148.513H455.709C455.806 149.68 456.214 150.594 456.934 151.256C457.654 151.917 458.539 152.247 459.589 152.247C461.106 152.247 462.186 151.596 462.828 150.293H467.233C466.766 151.849 465.871 153.128 464.548 154.129C463.226 155.131 461.602 155.632 459.677 155.632C458.12 155.632 456.725 155.286 455.49 154.596C454.255 153.905 453.292 152.928 452.602 151.664C451.911 150.4 451.566 148.942 451.566 147.288C451.566 145.616 451.906 144.148 452.587 142.884C453.268 141.619 454.221 140.647 455.446 139.966C456.672 139.286 458.082 138.945 459.677 138.945C461.213 138.945 462.589 139.276 463.805 139.937C465.02 140.599 465.964 141.537 466.634 142.752C467.306 143.968 467.641 145.363 467.641 146.938ZM463.411 145.771C463.391 144.721 463.012 143.88 462.273 143.248C461.534 142.616 460.63 142.3 459.56 142.3C458.548 142.3 457.697 142.607 457.007 143.219C456.316 143.832 455.894 144.683 455.738 145.771H463.411ZM459.618 135.561L455.271 138.012V135.036L459.618 132.674L463.936 135.036V138.012L459.618 135.561ZM476.51 147.23C476.51 145.596 476.836 144.148 477.488 142.884C478.139 141.619 479.024 140.647 480.142 139.966C481.26 139.286 482.51 138.945 483.891 138.945C485.097 138.945 486.152 139.189 487.057 139.675C487.961 140.161 488.685 140.774 489.23 141.512V139.208H493.343V155.369H489.23V153.006C488.705 153.764 487.98 154.392 487.057 154.888C486.133 155.384 485.068 155.632 483.862 155.632C482.501 155.632 481.26 155.281 480.142 154.581C479.024 153.881 478.139 152.894 477.488 151.62C476.836 150.347 476.51 148.883 476.51 147.23ZM489.23 147.288C489.23 146.296 489.035 145.446 488.647 144.736C488.257 144.026 487.733 143.482 487.071 143.102C486.41 142.723 485.7 142.534 484.941 142.534C484.183 142.534 483.483 142.718 482.841 143.088C482.199 143.457 481.679 143.997 481.28 144.707C480.881 145.417 480.682 146.258 480.682 147.23C480.682 148.202 480.881 149.053 481.28 149.783C481.679 150.512 482.204 151.071 482.855 151.46C483.507 151.849 484.202 152.043 484.941 152.043C485.7 152.043 486.41 151.854 487.071 151.475C487.733 151.095 488.257 150.551 488.647 149.841C489.035 149.131 489.23 148.28 489.23 147.288ZM504.517 155.632C502.961 155.632 501.561 155.286 500.316 154.596C499.071 153.905 498.094 152.928 497.384 151.664C496.674 150.4 496.319 148.942 496.319 147.288C496.319 145.636 496.684 144.177 497.413 142.913C498.143 141.649 499.139 140.672 500.404 139.981C501.668 139.291 503.078 138.945 504.634 138.945C506.19 138.945 507.6 139.291 508.864 139.981C510.129 140.672 511.125 141.649 511.854 142.913C512.584 144.177 512.949 145.636 512.949 147.288C512.949 148.942 512.574 150.4 511.825 151.664C511.076 152.928 510.065 153.905 508.791 154.596C507.517 155.286 506.093 155.632 504.517 155.632ZM504.517 152.072C505.256 152.072 505.952 151.893 506.603 151.533C507.255 151.173 507.775 150.634 508.164 149.914C508.553 149.194 508.747 148.319 508.747 147.288C508.747 145.752 508.344 144.571 507.537 143.744C506.73 142.918 505.743 142.504 504.576 142.504C503.409 142.504 502.431 142.918 501.644 143.744C500.856 144.571 500.462 145.752 500.462 147.288C500.462 148.825 500.846 150.007 501.614 150.833C502.382 151.659 503.351 152.072 504.517 152.072ZM521.847 147.259C521.847 145.645 522.182 144.211 522.853 142.957C523.524 141.702 524.433 140.725 525.581 140.025C526.728 139.325 527.993 138.975 529.374 138.975C530.521 138.975 531.537 139.193 532.422 139.631C533.307 140.069 534.022 140.627 534.567 141.308V139.208H538.68V163.07H534.567V153.152C534.022 153.852 533.293 154.435 532.378 154.902C531.464 155.369 530.434 155.602 529.286 155.602C527.925 155.602 526.675 155.247 525.537 154.538C524.399 153.828 523.5 152.841 522.839 151.577C522.177 150.312 521.847 148.874 521.847 147.259ZM534.567 147.288C534.567 146.296 534.362 145.441 533.954 144.721C533.545 144.002 533.015 143.457 532.364 143.088C531.712 142.718 531.017 142.534 530.278 142.534C529.558 142.534 528.873 142.718 528.221 143.088C527.569 143.457 527.04 143.997 526.631 144.707C526.223 145.417 526.018 146.267 526.018 147.259C526.018 148.251 526.223 149.112 526.631 149.841C527.04 150.57 527.569 151.12 528.221 151.489C528.873 151.859 529.558 152.043 530.278 152.043C531.017 152.043 531.712 151.859 532.364 151.489C533.015 151.12 533.545 150.575 533.954 149.855C534.362 149.136 534.567 148.28 534.567 147.288ZM557.935 139.208V155.369H553.821V153.327C553.296 154.027 552.61 154.577 551.765 154.975C550.918 155.374 550 155.573 549.008 155.573C547.743 155.573 546.625 155.306 545.653 154.771C544.68 154.236 543.917 153.449 543.362 152.408C542.808 151.368 542.531 150.128 542.531 148.689V139.208H546.615V148.105C546.615 149.389 546.936 150.376 547.578 151.066C548.22 151.757 549.095 152.102 550.204 152.102C551.332 152.102 552.217 151.757 552.859 151.066C553.5 150.376 553.821 149.389 553.821 148.105V139.208H557.935ZM576.986 146.938C576.986 147.522 576.947 148.047 576.869 148.513H565.054C565.151 149.68 565.559 150.594 566.279 151.256C566.999 151.917 567.883 152.247 568.934 152.247C570.451 152.247 571.531 151.596 572.172 150.293H576.577C576.11 151.849 575.216 153.128 573.893 154.129C572.571 155.131 570.947 155.632 569.021 155.632C567.465 155.632 566.07 155.286 564.835 154.596C563.6 153.905 562.637 152.928 561.946 151.664C561.256 150.4 560.911 148.942 560.911 147.288C560.911 145.616 561.251 144.148 561.932 142.884C562.613 141.619 563.566 140.647 564.791 139.966C566.016 139.286 567.426 138.945 569.021 138.945C570.558 138.945 571.934 139.276 573.149 139.937C574.365 140.599 575.308 141.537 575.979 142.752C576.65 143.968 576.986 145.363 576.986 146.938ZM572.756 145.771C572.736 144.721 572.357 143.88 571.618 143.248C570.878 142.616 569.974 142.3 568.905 142.3C567.893 142.3 567.042 142.607 566.352 143.219C565.661 143.832 565.238 144.683 565.083 145.771H572.756Z" fill="white"/>
<path d="M349.212 178.614C351.196 178.614 352.795 179.221 354.011 180.437C355.226 181.652 355.834 183.349 355.834 185.527V195.008H351.75V186.082C351.75 184.817 351.429 183.85 350.787 183.179C350.145 182.508 349.27 182.173 348.162 182.173C347.053 182.173 346.173 182.508 345.521 183.179C344.87 183.85 344.544 184.817 344.544 186.082V195.008H340.46V186.082C340.46 184.817 340.139 183.85 339.497 183.179C338.855 182.508 337.98 182.173 336.871 182.173C335.743 182.173 334.853 182.508 334.202 183.179C333.55 183.85 333.225 184.817 333.225 186.082V195.008H329.14V178.847H333.225V180.801C333.75 180.121 334.426 179.586 335.252 179.197C336.079 178.808 336.988 178.614 337.98 178.614C339.244 178.614 340.372 178.881 341.364 179.416C342.356 179.951 343.124 180.714 343.669 181.706C344.194 180.772 344.957 180.024 345.959 179.46C346.96 178.896 348.045 178.614 349.212 178.614ZM358.664 186.869C358.664 185.235 358.99 183.787 359.642 182.523C360.293 181.259 361.178 180.286 362.296 179.606C363.414 178.925 364.664 178.584 366.045 178.584C367.251 178.584 368.306 178.828 369.211 179.314C370.115 179.8 370.839 180.413 371.384 181.151V178.847H375.497V195.008H371.384V192.645C370.859 193.403 370.134 194.031 369.211 194.526C368.287 195.023 367.222 195.271 366.016 195.271C364.654 195.271 363.414 194.92 362.296 194.22C361.178 193.52 360.293 192.533 359.642 191.259C358.99 189.985 358.664 188.522 358.664 186.869ZM371.384 186.927C371.384 185.935 371.189 185.085 370.801 184.375C370.411 183.665 369.886 183.121 369.225 182.741C368.564 182.362 367.854 182.173 367.095 182.173C366.337 182.173 365.637 182.357 364.995 182.727C364.353 183.096 363.833 183.636 363.434 184.346C363.035 185.056 362.836 185.897 362.836 186.869C362.836 187.842 363.035 188.692 363.434 189.422C363.833 190.151 364.358 190.71 365.01 191.099C365.661 191.488 366.356 191.683 367.095 191.683C367.854 191.683 368.564 191.493 369.225 191.114C369.886 190.734 370.411 190.19 370.801 189.48C371.189 188.77 371.384 187.919 371.384 186.927ZM381.566 176.922C380.846 176.922 380.248 176.694 379.771 176.236C379.295 175.779 379.057 175.211 379.057 174.53C379.057 173.849 379.295 173.28 379.771 172.823C380.248 172.366 380.846 172.138 381.566 172.138C382.285 172.138 382.883 172.366 383.36 172.823C383.836 173.28 384.075 173.849 384.075 174.53C384.075 175.211 383.836 175.779 383.36 176.236C382.883 176.694 382.285 176.922 381.566 176.922ZM383.579 178.847V195.008H379.494V178.847H383.579ZM393.79 195.271C392.467 195.271 391.281 195.032 390.231 194.556C389.18 194.08 388.349 193.433 387.736 192.616C387.123 191.799 386.788 190.895 386.73 189.903H390.843C390.921 190.525 391.227 191.041 391.762 191.449C392.297 191.857 392.963 192.061 393.76 192.061C394.538 192.061 395.146 191.906 395.584 191.595C396.021 191.284 396.24 190.885 396.24 190.399C396.24 189.874 395.972 189.48 395.438 189.217C394.903 188.955 394.052 188.668 392.885 188.357C391.679 188.065 390.692 187.764 389.924 187.452C389.156 187.142 388.494 186.665 387.94 186.023C387.386 185.381 387.109 184.516 387.109 183.427C387.109 182.532 387.366 181.716 387.882 180.976C388.397 180.238 389.136 179.654 390.099 179.226C391.062 178.798 392.195 178.584 393.498 178.584C395.424 178.584 396.96 179.066 398.108 180.029C399.255 180.991 399.887 182.289 400.004 183.923H396.094C396.036 183.281 395.769 182.771 395.292 182.391C394.816 182.012 394.178 181.823 393.381 181.823C392.642 181.823 392.073 181.959 391.674 182.231C391.276 182.503 391.076 182.882 391.076 183.368C391.076 183.913 391.349 184.326 391.893 184.608C392.438 184.89 393.284 185.177 394.432 185.469C395.598 185.76 396.561 186.062 397.32 186.373C398.078 186.684 398.735 187.166 399.289 187.817C399.843 188.469 400.13 189.33 400.15 190.399C400.15 191.333 399.892 192.169 399.376 192.908C398.861 193.647 398.122 194.225 397.159 194.643C396.196 195.061 395.073 195.271 393.79 195.271ZM412.52 176.922C411.8 176.922 411.202 176.694 410.725 176.236C410.249 175.779 410.011 175.211 410.011 174.53C410.011 173.849 410.249 173.28 410.725 172.823C411.202 172.366 411.8 172.138 412.52 172.138C413.239 172.138 413.837 172.366 414.314 172.823C414.79 173.28 415.028 173.849 415.028 174.53C415.028 175.211 414.79 175.779 414.314 176.236C413.837 176.694 413.239 176.922 412.52 176.922ZM414.533 178.847V195.008H410.448V178.847H414.533ZM438.63 178.614C440.614 178.614 442.214 179.221 443.429 180.437C444.645 181.652 445.253 183.349 445.253 185.527V195.008H441.168V186.082C441.168 184.817 440.848 183.85 440.206 183.179C439.564 182.508 438.689 182.173 437.58 182.173C436.472 182.173 435.591 182.508 434.94 183.179C434.289 183.85 433.963 184.817 433.963 186.082V195.008H429.878V186.082C429.878 184.817 429.557 183.85 428.915 183.179C428.273 182.508 427.398 182.173 426.29 182.173C425.162 182.173 424.272 182.508 423.62 183.179C422.969 183.85 422.643 184.817 422.643 186.082V195.008H418.559V178.847H422.643V180.801C423.168 180.121 423.844 179.586 424.671 179.197C425.497 178.808 426.406 178.614 427.398 178.614C428.663 178.614 429.79 178.881 430.782 179.416C431.774 179.951 432.543 180.714 433.087 181.706C433.613 180.772 434.376 180.024 435.377 179.46C436.379 178.896 437.464 178.614 438.63 178.614ZM453.217 181.181C453.743 180.441 454.467 179.824 455.391 179.329C456.315 178.832 457.37 178.584 458.556 178.584C459.937 178.584 461.187 178.925 462.305 179.606C463.423 180.286 464.308 181.254 464.96 182.508C465.611 183.763 465.937 185.216 465.937 186.869C465.937 188.522 465.611 189.985 464.96 191.259C464.308 192.533 463.423 193.52 462.305 194.22C461.187 194.92 459.937 195.271 458.556 195.271C457.37 195.271 456.324 195.027 455.42 194.541C454.515 194.055 453.781 193.442 453.217 192.703V202.709H449.133V178.847H453.217V181.181ZM461.765 186.869C461.765 185.897 461.566 185.056 461.167 184.346C460.768 183.636 460.243 183.096 459.592 182.727C458.94 182.357 458.235 182.173 457.477 182.173C456.738 182.173 456.042 182.362 455.391 182.741C454.739 183.121 454.214 183.67 453.815 184.39C453.417 185.109 453.217 185.955 453.217 186.927C453.217 187.9 453.417 188.746 453.815 189.465C454.214 190.185 454.739 190.734 455.391 191.114C456.042 191.493 456.738 191.683 457.477 191.683C458.235 191.683 458.94 191.488 459.592 191.099C460.243 190.71 460.768 190.156 461.167 189.436C461.566 188.717 461.765 187.861 461.765 186.869ZM476.09 195.271C474.534 195.271 473.133 194.925 471.889 194.235C470.644 193.544 469.667 192.567 468.957 191.303C468.247 190.039 467.892 188.581 467.892 186.927C467.892 185.274 468.256 183.816 468.986 182.552C469.715 181.288 470.712 180.311 471.976 179.62C473.241 178.93 474.65 178.584 476.207 178.584C477.762 178.584 479.172 178.93 480.437 179.62C481.701 180.311 482.697 181.288 483.427 182.552C484.156 183.816 484.521 185.274 484.521 186.927C484.521 188.581 484.147 190.039 483.398 191.303C482.649 192.567 481.638 193.544 480.363 194.235C479.09 194.925 477.665 195.271 476.09 195.271ZM476.09 191.711C476.829 191.711 477.524 191.532 478.176 191.172C478.827 190.812 479.347 190.273 479.736 189.553C480.126 188.833 480.32 187.958 480.32 186.927C480.32 185.391 479.916 184.209 479.109 183.383C478.302 182.557 477.315 182.143 476.148 182.143C474.981 182.143 474.004 182.557 473.216 183.383C472.428 184.209 472.034 185.391 472.034 186.927C472.034 188.464 472.419 189.646 473.187 190.472C473.955 191.299 474.923 191.711 476.09 191.711ZM491.611 181.356C492.136 180.5 492.821 179.829 493.667 179.343C494.513 178.857 495.481 178.614 496.57 178.614V182.902H495.49C494.207 182.902 493.239 183.204 492.588 183.806C491.936 184.409 491.611 185.459 491.611 186.957V195.008H487.526V178.847H491.611V181.356ZM504.068 182.202V190.019C504.068 190.564 504.199 190.958 504.461 191.201C504.724 191.444 505.167 191.566 505.789 191.566H507.685V195.008H505.118C501.675 195.008 499.954 193.335 499.954 189.991V182.202H498.029V178.847H499.954V174.85H504.068V178.847H507.685V182.202H504.068ZM509.582 186.869C509.582 185.235 509.907 183.787 510.559 182.523C511.21 181.259 512.095 180.286 513.214 179.606C514.332 178.925 515.581 178.584 516.963 178.584C518.169 178.584 519.224 178.828 520.128 179.314C521.032 179.8 521.757 180.413 522.302 181.151V178.847H526.415V195.008H522.302V192.645C521.776 193.403 521.052 194.031 520.128 194.526C519.204 195.023 518.139 195.271 516.934 195.271C515.572 195.271 514.332 194.92 513.214 194.22C512.095 193.52 511.21 192.533 510.559 191.259C509.907 189.985 509.582 188.522 509.582 186.869ZM522.302 186.927C522.302 185.935 522.107 185.085 521.718 184.375C521.329 183.665 520.804 183.121 520.143 182.741C519.481 182.362 518.771 182.173 518.013 182.173C517.254 182.173 516.554 182.357 515.912 182.727C515.27 183.096 514.75 183.636 514.351 184.346C513.953 185.056 513.753 185.897 513.753 186.869C513.753 187.842 513.953 188.692 514.351 189.422C514.75 190.151 515.276 190.71 515.927 191.099C516.578 191.488 517.274 191.683 518.013 191.683C518.771 191.683 519.481 191.493 520.143 191.114C520.804 190.734 521.329 190.19 521.718 189.48C522.107 188.77 522.302 187.919 522.302 186.927Z" fill="white"/>
</svg>
