<svg width="254" height="202" viewBox="0 0 254 202" fill="none" xmlns="http://www.w3.org/2000/svg">
<path fill-rule="evenodd" clip-rule="evenodd" d="M197.496 179.191L198.415 179.122C206.365 178.383 210.318 166.388 216.844 152.873C225.331 135.298 239.884 124.386 253.13 112.852C201.829 119.806 150.643 127.67 99.2275 133.713C88.8199 134.936 80.8885 136.274 83.4408 146.288C86.0272 153.69 88.6141 161.091 91.2005 168.494C94.5504 175.307 99.2985 179.325 105.441 180.554L106.979 180.586C106.455 182.175 106.172 183.871 106.172 185.632C106.172 194.597 113.496 201.864 122.532 201.864C131.568 201.864 138.893 194.597 138.893 185.632C138.893 184.107 138.682 182.631 138.285 181.231L166.494 181.467C166.179 182.724 166.011 184.038 166.011 185.391C166.011 194.355 173.336 201.622 182.372 201.622C191.408 201.622 198.733 194.355 198.733 185.391C198.733 183.187 198.289 181.082 197.485 179.166L197.496 179.191ZM122.532 169.402C122.662 169.402 122.793 169.404 122.921 169.406C122.792 169.404 122.662 169.402 122.532 169.402ZM124.237 169.489C124.361 169.502 124.484 169.516 124.608 169.531L124.237 169.489ZM122.532 179.657C125.859 179.657 128.555 182.333 128.555 185.632C128.555 188.933 125.859 191.608 122.532 191.608C119.206 191.608 116.509 188.933 116.509 185.632C116.509 182.333 119.206 179.657 122.532 179.657ZM181.971 169.165C182.105 169.161 182.239 169.16 182.372 169.16C182.499 169.16 182.625 169.162 182.75 169.165L182.859 169.167L183.155 169.179L183.254 169.183C183.38 169.19 183.506 169.197 183.631 169.207L183.64 169.208C183.763 169.217 183.886 169.228 184.009 169.24C183.887 169.228 183.763 169.217 183.64 169.208L181.971 169.165ZM182.372 169.16C182.499 169.16 182.625 169.162 182.75 169.165L182.372 169.16ZM182.372 179.416C185.699 179.416 188.395 182.091 188.395 185.391C188.395 188.691 185.699 191.366 182.372 191.366C179.045 191.366 176.349 188.691 176.349 185.391C176.349 182.091 179.045 179.416 182.372 179.416Z" fill="white"/>
<path fill-rule="evenodd" clip-rule="evenodd" d="M57.234 134.233C106.523 127.342 155.812 120.451 205.101 113.56C220.914 110.817 230.967 104.103 235.42 93.5273C237.277 87.0882 239.135 80.6491 240.992 74.21C180.618 74.2919 120.243 74.374 59.8685 74.4558C71.7091 115.184 72.7486 106.875 57.234 134.233Z" fill="white"/>
<path fill-rule="evenodd" clip-rule="evenodd" d="M2.57279 16.4365C16.8563 16.931 35.4758 15.8437 38.2511 17.872C61.4936 27.2415 55.9016 68.7312 78.3658 65.9054C66.6331 45.1498 58.6419 10.3724 33.0484 6.7408C23.0218 6.6748 12.9952 6.60879 2.9686 6.54279C1.28507 6.95648 0.126241 8.35377 0.000196714 11.6875C-0.0148766 13.9974 0.836245 15.5865 2.57279 16.4365Z" fill="white"/>
<path fill-rule="evenodd" clip-rule="evenodd" d="M90.2998 65.5424C105.724 65.5918 121.148 65.6409 136.573 65.6902C142.796 44.9967 132.175 29.9656 113.43 30.1431C95.9889 30.3086 85.2315 41.6612 90.2998 65.5424Z" fill="white"/>
<path fill-rule="evenodd" clip-rule="evenodd" d="M102.751 29.7179C95.1921 29.1187 92.1312 20.1576 91.3765 8.38776C105.984 10.0249 110.461 17.0788 110.397 25.819C107.47 23.7027 104.396 21.2623 101.163 20.3697C100.967 22.8935 101.932 26.2802 102.751 29.7179Z" fill="white"/>
<path fill-rule="evenodd" clip-rule="evenodd" d="M172.782 65.7438C172.588 48.7398 172.393 31.7355 172.199 14.7312C168.017 12.0661 163.878 9.04315 159.696 6.37801C158.213 4.11151 160.364 2.26651 158.881 0C154.711 0.028065 143.217 -0.0078141 139.048 0.0202509C137.481 2.17476 139.561 4.32928 137.994 6.48378C133.824 9.2539 129.655 12.0243 125.485 14.7944C125.485 18.5439 125.485 22.2937 125.485 26.043C137.229 29.918 144.39 39.0794 144.962 55.8436C145.723 60.1656 147.471 63.971 152.937 65.8329C159.552 65.8033 166.167 65.7737 172.782 65.7438Z" fill="white"/>
<path fill-rule="evenodd" clip-rule="evenodd" d="M191.852 65.2911C217.066 69.7511 221.435 41.1596 225.727 12.4455C199.442 18.4961 173.784 24.9711 178.353 51.9207C184.083 50.2228 189.814 48.5249 195.545 46.8272C194.314 52.9817 193.083 59.1365 191.852 65.2911Z" fill="white"/>
</svg>
